<svg preserveAspectRatio="none" width="100%" height="100%" overflow="visible" style="display: block;" viewBox="0 0 659.758 77.5845" fill="none" xmlns="http://www.w3.org/2000/svg">
<path id="Vector" d="M0 10.7939V1.0135H58.5132V10.7939H34.9862V76.5203H23.6284V10.7939H0ZM62.7764 76.5203V1.0135H89.7514C95.5992 1.0135 100.45 2.02704 104.303 4.05407C108.157 6.0473 111.047 8.83445 112.974 12.4155C114.901 15.9628 115.864 20.0676 115.864 24.7298C115.864 29.3244 114.901 33.3784 112.974 36.8919C111.047 40.4055 108.14 43.125 104.253 45.0506C100.399 46.9763 95.5315 47.9391 89.6499 47.9391H69.3174V38.2094H88.5851C92.3373 38.2094 95.3626 37.6688 97.6612 36.5877C99.9935 35.5067 101.684 33.9696 102.732 31.9763C103.813 29.9832 104.354 27.5676 104.354 24.7298C104.354 21.8582 103.813 19.3919 102.732 17.3311C101.65 15.2365 99.9429 13.6318 97.6106 12.5169C95.3119 11.3682 92.2864 10.7939 88.5344 10.7939H74.185V76.5203H62.7764ZM105.774 76.5203L87.4696 42.4156H100.095L118.754 76.5203H105.774ZM127.733 76.5203H115.615L142.792 1.0135H155.976L183.103 76.5203H171.035L149.637 14.7466H149.029L127.733 76.5203ZM129.761 46.9763H168.956V56.5034H129.761V46.9763ZM213.276 77.5339C206.786 77.5339 200.972 75.9797 195.834 72.8716C190.696 69.7635 186.656 65.3209 183.715 59.5438C180.774 53.733 179.304 46.8243 179.304 38.8176C179.304 30.7432 180.774 23.8176 183.715 18.0405C186.69 12.2297 190.729 7.77026 195.834 4.66215C200.972 1.55406 206.786 0 213.276 0C217.266 0 221 0.574324 224.483 1.72297C227.998 2.87162 231.142 4.54392 233.913 6.73986C236.684 8.93582 238.967 11.6216 240.758 14.7973C242.584 17.973 243.8 21.5709 244.408 25.5912H232.95C232.509 23.125 231.682 20.9629 230.464 19.1047C229.281 17.2128 227.812 15.625 226.053 14.3412C224.329 13.0236 222.386 12.0439 220.223 11.402C218.092 10.7263 215.828 10.3885 213.428 10.3885C209.101 10.3885 205.197 11.4865 201.715 13.6824C198.267 15.8446 195.546 19.0541 193.552 23.3108C191.591 27.5339 190.611 32.7028 190.611 38.8176C190.611 44.9661 191.608 50.1521 193.602 54.375C195.597 58.5642 198.318 61.74 201.766 63.9021C205.214 66.0643 209.084 67.1454 213.377 67.1454C215.777 67.1454 218.042 66.8243 220.171 66.1825C222.302 65.5406 224.245 64.5778 226.004 63.2939C227.76 62.0102 229.231 60.4561 230.415 58.6318C231.631 56.7737 232.476 54.6284 232.95 52.1959H244.408C243.834 55.946 242.668 59.375 240.909 62.4831C239.153 65.5575 236.905 68.2264 234.166 70.4898C231.427 72.7196 228.301 74.4595 224.786 75.7095C221.27 76.9257 217.434 77.5339 213.276 77.5339ZM249.585 76.5203V1.0135H260.992V37.0945H261.905L293.646 1.0135H307.895L277.473 34.9661L308.046 76.5203H294.306L269.866 42.821L260.992 53.1082V76.5203H249.585ZM331.173 77.5845C326.136 77.5845 321.775 76.6723 318.091 74.8481C314.439 72.9899 311.618 70.4729 309.623 67.2974C307.663 64.1216 306.681 60.5069 306.681 56.4528C306.681 53.3784 307.341 50.6757 308.66 48.3447C310.013 45.9797 311.836 43.7838 314.136 41.7568C316.434 39.7298 319.036 37.6351 321.944 35.4729L334.165 26.858C336.157 25.4392 337.73 24.0033 338.879 22.5508C340.062 21.098 340.655 19.2399 340.655 16.9764C340.655 15.2196 339.893 13.5304 338.373 11.9088C336.852 10.2534 334.805 9.42568 332.237 9.42568C330.478 9.42568 328.925 9.86488 327.573 10.7432C326.253 11.5878 325.206 12.6858 324.429 14.0372C323.685 15.3547 323.313 16.7568 323.313 18.2433C323.313 19.9324 323.787 21.6723 324.732 23.4628C325.712 25.2195 326.948 27.0271 328.434 28.8852C329.955 30.7095 331.545 32.6351 333.2 34.6621L368.238 76.5203H355.764L326.762 42.4662C324.328 39.5607 322.063 36.8411 319.966 34.3075C317.87 31.7399 316.18 29.1555 314.895 26.554C313.613 23.9527 312.97 21.1317 312.97 18.0912C312.97 14.6115 313.764 11.5372 315.352 8.86825C316.942 6.16555 319.155 4.05407 321.996 2.53378C324.869 0.97973 328.198 0.202703 331.984 0.202703C335.904 0.202703 339.251 0.962843 342.022 2.4831C344.828 4.00338 346.992 6.01352 348.512 8.51352C350.035 11.0135 350.795 13.75 350.795 16.723C350.795 20.2703 349.899 23.4122 348.108 26.1486C346.317 28.8513 343.865 31.3514 340.755 33.6487L325.544 44.8481C322.604 47.0102 320.559 49.1555 319.408 51.2837C318.294 53.3784 317.736 55.0001 317.736 56.1486C317.736 58.3447 318.294 60.3715 319.408 62.2297C320.525 64.0541 322.095 65.5237 324.124 66.6385C326.152 67.7534 328.536 68.3108 331.274 68.3108C334.046 68.3108 336.767 67.7028 339.437 66.4865C342.107 65.2364 344.525 63.4798 346.689 61.2163C348.852 58.919 350.576 56.1655 351.859 52.9562C353.179 49.7467 353.837 46.1655 353.837 42.2128H363.775C363.775 47.0777 363.217 51.1994 362.103 54.5778C361.021 57.9222 359.684 60.6418 358.096 62.7365C356.541 64.8312 355.087 66.4697 353.735 67.6519C353.296 68.0574 352.874 68.4628 352.469 68.8682C352.063 69.2398 351.641 69.6284 351.202 70.0338C348.631 72.6014 345.523 74.5101 341.871 75.7601C338.254 76.9763 334.688 77.5845 331.173 77.5845ZM359.52 10.7939V1.0135H418.033V10.7939H394.506V76.5203H383.148V10.7939H359.52ZM422.297 76.5203V1.0135H449.271C455.12 1.0135 459.971 2.02704 463.824 4.05407C467.677 6.0473 470.567 8.83445 472.495 12.4155C474.42 15.9628 475.385 20.0676 475.385 24.7298C475.385 29.3244 474.42 33.3784 472.495 36.8919C470.567 40.4055 467.659 43.125 463.774 45.0506C459.919 46.9763 455.051 47.9391 449.171 47.9391H428.837V38.2094H448.104C451.858 38.2094 454.882 37.6688 457.182 36.5877C459.514 35.5067 461.204 33.9696 462.251 31.9763C463.333 29.9832 463.874 27.5676 463.874 24.7298C463.874 21.8582 463.333 19.3919 462.251 17.3311C461.169 15.2365 459.462 13.6318 457.13 12.5169C454.833 11.3682 451.806 10.7939 448.055 10.7939H433.705V76.5203H422.297ZM465.295 76.5203L446.99 42.4156H459.616L478.275 76.5203H465.295ZM480.813 76.5203V1.0135H528.224V10.7939H492.223V33.5473H525.688V43.277H492.223V66.74H528.579V76.5203H480.813ZM541.308 76.5203H529.191L556.367 1.0135H569.551L596.678 76.5203H584.611L563.212 14.7466H562.605L541.308 76.5203ZM543.337 46.9763H582.532V56.5034H543.337V46.9763ZM623.454 76.5203H604.795V66.5371H622.795C628.541 66.5371 633.324 65.4729 637.144 63.3445C640.965 61.1823 643.821 58.0236 645.714 53.8682C647.607 49.679 648.552 44.6115 648.552 38.6656C648.552 32.7534 647.607 27.7365 645.714 23.6148C643.855 19.4932 641.067 16.3682 637.348 14.2399C633.629 12.0777 629.014 10.9966 623.504 10.9966H604.388V1.0135H624.214C631.617 1.0135 637.973 2.5169 643.28 5.52364C648.587 8.53041 652.66 12.8547 655.499 18.4966C658.339 24.1047 659.758 30.8277 659.758 38.6656C659.758 46.5371 658.322 53.2939 655.449 58.9358C652.608 64.5778 648.485 68.919 643.076 71.9594C637.668 75.0001 631.128 76.5203 623.454 76.5203ZM610.372 1.0135V76.5203H598.965V1.0135H610.372Z" fill="var(--fill-0, black)"/>
</svg>
