<svg preserveAspectRatio="none" width="100%" height="100%" overflow="visible" style="display: block;" viewBox="0 0 38.3121 17.5003" fill="none" xmlns="http://www.w3.org/2000/svg">
<g id="Discover">
<path id="Stripe" d="M14.0479 17.5003L38.3122 10.3128V15.7233C38.3122 16.7047 37.5166 17.5003 36.5351 17.5003H14.0479Z" fill="var(--fill-0, #FD6020)"/>
<path id="DISC-VER" d="M14.2832 0.138012C14.7504 0.138012 15.2851 0.205315 15.6855 0.47395V1.8177C15.3518 1.41475 14.8172 1.14582 14.2832 1.14582C13.2155 1.21323 12.3483 2.15348 12.415 3.22786V3.36165C12.415 4.43618 13.2827 5.2425 14.3506 5.2425C14.8845 5.24245 15.3519 4.97354 15.6855 4.57063V5.91438C15.2183 6.11586 14.7508 6.25032 14.2168 6.25032C12.5482 6.25024 11.2139 4.8394 11.2139 3.16047C11.2139 1.41455 12.5481 0.004007 14.2832 0.138012ZM24.7627 4.16829L26.3643 0.138012H27.5654L25.0957 6.24934H24.4951L22.0264 0.138012H23.2275L24.7627 4.16829ZM8.94336 0.0042234C9.54407 0.0042234 10.1451 0.273146 10.6123 0.676098L10.0117 1.48176C9.74475 1.21314 9.41087 1.01205 9.07715 1.01204C8.67677 0.944892 8.34322 1.2801 8.27637 1.68293C8.27637 2.0187 8.47624 2.1536 9.14355 2.42219C10.4785 2.95946 10.8122 3.36238 10.8789 4.16829V4.36946C10.8122 5.44397 9.94485 6.25005 8.87695 6.18293C8.07614 6.18293 7.27554 5.77984 6.875 5.04133L7.6084 4.30207C7.80864 4.77219 8.27658 5.10872 8.81055 5.10872H8.87695C9.27727 5.10867 9.67748 4.70556 9.67773 4.23567C9.67773 3.96703 9.54399 3.76549 9.34375 3.63118C9.07681 3.49688 8.80991 3.36239 8.54297 3.29524C7.47511 2.95945 7.1416 2.48881 7.1416 1.68293V1.61555C7.20858 0.675646 8.00919 -0.0627662 8.94336 0.0042234ZM2.00195 0.138012C3.6038 0.205169 4.87233 1.54873 4.80566 3.16047C4.80556 4.03337 4.40463 4.83934 3.7373 5.44368C3.13676 5.91355 2.40289 6.18257 1.66895 6.11555H0V0.138012H2.00195ZM6.40723 6.11555H5.27344V0.138012H6.40723V6.11555ZM31.3037 1.14582H29.2344V2.4886H31.2373V3.49641H29.2344V5.10774H31.3037V6.11555H28.1006V0.138012H31.3037V1.14582ZM33.707 0.138012C35.0413 0.138258 35.7753 0.742816 35.7754 1.88411C35.8421 2.75698 35.2411 3.49565 34.4404 3.6302L36.2432 6.11555H34.8418L33.3066 3.69758H33.1729V6.11555H32.0381V0.138012H33.707ZM1.46875 1.14485H1.13477V5.10774H1.46875C2.00261 5.17474 2.60354 4.97372 3.00391 4.63801C3.40429 4.23511 3.60445 3.69741 3.60449 3.09309C3.60446 2.55599 3.40416 2.01844 3.00391 1.61555C2.60355 1.27989 2.00256 1.07787 1.46875 1.14485ZM33.1729 2.89094H33.5068C34.2403 2.89069 34.5741 2.55549 34.5742 1.95149C34.5741 1.41458 34.2403 1.0787 33.5068 1.07844H33.1729V2.89094Z" fill="var(--fill-0, black)"/>
<path id="O" fill-rule="evenodd" clip-rule="evenodd" d="M19.0893 0.000217976C17.4207 0.000217976 16.019 1.34339 16.019 3.08952C16.019 4.76848 17.354 6.17882 19.0893 6.24598C20.8247 6.31313 22.1596 4.9028 22.2264 3.15668C22.1596 1.41055 20.8247 0.000217976 19.0893 0.000217976V0.000217976Z" fill="var(--fill-0, #FD6020)"/>
</g>
</svg>
