<svg preserveAspectRatio="none" width="100%" height="100%" overflow="visible" style="display: block;" viewBox="0 0 44 30" fill="none" xmlns="http://www.w3.org/2000/svg">
<g id="Payment Method" clip-path="url(#clip0_0_286)">
<rect id="BASE" x="-4.74584e-05" y="0.000244141" width="44" height="30" fill="var(--fill-0, #006FCF)"/>
<g id="letters">
<path d="M23.2213 19.4407C23.2213 19.7443 23.0177 20.0478 22.6107 20.0478H21.1859V18.9347H22.6107C23.0177 18.9347 23.2213 19.1371 23.2213 19.4407Z" fill="var(--fill-0, white)"/>
<path d="M27.8009 18.9347C28.2079 18.9347 28.4115 19.1371 28.4115 19.4407C28.4115 19.7443 28.2079 19.9466 27.8009 19.9466H26.3761V18.9347H27.8009Z" fill="var(--fill-0, white)"/>
<path fill-rule="evenodd" clip-rule="evenodd" d="M28.0044 23.8931H42.252C42.6606 23.8931 43.0236 23.8025 43.3715 23.6516V22.4532C43.0899 22.6591 42.7144 22.78 42.252 22.78H39.606V21.6669H42.252C42.4556 21.6669 42.6591 21.5657 42.8626 21.3633C42.8626 21.1609 42.6591 20.9585 42.3538 20.9585H41.1326C40.1149 20.9585 39.5043 20.3514 39.5043 19.4407C39.5043 18.53 40.1149 17.8216 41.2343 17.8216H43.3715V16.8097H17.624L16.9116 17.7205L16.1992 16.8097H8.77013V23.8931H16.1992L16.9116 22.8812L17.624 23.8931H22.2036V22.274H22.7124C23.2213 22.274 23.6284 22.1728 24.0354 22.0716V23.8931H27.0885V22.6788L28.0044 23.8931ZM14.0621 18.9347V17.8216H9.88958V22.8812H14.0621V22.78H15.6904L16.9116 21.1609L18.1328 22.78H19.7611L17.7258 20.2502L19.7611 17.7204H18.1328L16.9116 19.2383L15.6904 17.7204H14.0621L16.0975 20.2502L14.0621 22.78V21.7681H11.2126V20.8573H13.9603V19.7443H11.2126V18.9347H14.0621ZM19.8629 22.78H21.1859V21.1609H22.7124C23.8319 21.1609 24.5443 20.4526 24.5443 19.4407C24.5443 18.4288 23.8319 17.7204 22.8142 17.7204H19.8629V22.78ZM26.3761 21.0597H26.885L28.4115 22.8812H30.0398L28.4115 21.0597C29.2256 20.8573 29.7345 20.2502 29.7345 19.4407C29.7345 18.4288 29.0221 17.8216 28.0044 17.8216H25.0531V22.8812H26.3761V21.0597ZM34.3141 18.9347V17.8216H30.1416V22.8812H34.3141V21.7681H31.4645V20.8573H34.2123V19.7443H31.4645V18.9347H34.3141ZM37.5707 21.6669H34.9247V22.78H37.5707C38.6901 22.78 39.3007 22.0716 39.3007 21.1609C39.3007 20.2502 38.6901 19.7443 37.6724 19.7443H36.4512C36.1459 19.7443 36.0441 19.5419 36.0441 19.3395C36.0441 19.0359 36.2477 18.9347 36.4512 18.9347H38.6901L39.199 17.8216H36.553C35.4335 17.8216 34.8229 18.53 34.8229 19.4407C34.8229 20.3514 35.4335 20.9585 36.4512 20.9585H37.6724C37.9777 20.9585 38.1813 21.1609 38.1813 21.3633C37.9777 21.5657 37.7742 21.6669 37.5707 21.6669Z" fill="var(--fill-0, white)"/>
<path d="M43.3715 18.9347L43.3715 19.9835C43.107 19.8262 42.7634 19.7443 42.3538 19.7443H41.1326C40.8273 19.7443 40.6237 19.5419 40.6237 19.3395C40.6237 19.0359 40.8273 18.9347 41.1326 18.9347H43.3715Z" fill="var(--fill-0, white)"/>
<path d="M3.68169 9.72639L2.96931 11.4466H4.39407L3.68169 9.72639Z" fill="var(--fill-0, white)"/>
<path d="M22.2036 10.1312C22.2036 9.82759 22.0001 9.62521 21.593 9.62521H20.1682V10.6371H21.593C22.0001 10.6371 22.2036 10.4347 22.2036 10.1312Z" fill="var(--fill-0, white)"/>
<path d="M31.9734 9.72639L31.261 11.4466H32.6858L31.9734 9.72639Z" fill="var(--fill-0, white)"/>
<path fill-rule="evenodd" clip-rule="evenodd" d="M0.62863 14.6847H2.76577L3.17285 13.6728H4.08877L4.49584 14.6847H20.9824V13.4705L21.8983 14.5835H26.3761V13.9764C26.9867 14.4824 27.8009 14.5835 28.5133 14.5835H31.1592L31.5663 13.5716H32.4822L32.8893 14.5835H37.2654V13.3693L38.1813 14.5835H41.3361V7.50022H38.1813V8.81569L37.3671 7.50022H34.4158V9.32164L33.6017 7.50022H28.7168C27.8009 7.50022 27.0885 7.80379 26.4779 8.20855V7.50022H10.602L10.0931 8.91688L9.58427 7.50022H5.9206V9.32164L5.10645 7.50022H2.15516L0.62863 10.9407V13.5716V14.6847ZM0.62863 13.5716H2.05339L2.46047 12.5597H4.80115L5.20822 13.5716H6.63298L4.49584 8.51211H2.76577L0.62863 13.5716ZM10.5002 13.5716H9.38074L8.15951 9.82759V13.5716H6.83652V8.51211H8.87189L9.99135 11.7502L11.1108 8.51211H13.1462V13.5716H11.8232V9.82759L10.5002 13.5716ZM18.2346 8.51211V9.62521H15.3851V10.4347H18.1328V11.5478H15.3851V12.4585H18.2346V13.5716H14.0621V8.51211H18.2346ZM20.6771 11.7502H20.1682L20.27 13.5716H18.947V8.51211H21.7965C22.8142 8.51211 23.5266 9.11925 23.5266 10.1312C23.5266 10.9407 23.0177 11.5478 22.2036 11.7502L23.8319 13.5716H22.2036L20.6771 11.7502ZM25.3584 13.5716H24.0354V8.51211H25.3584V13.5716ZM28.9203 12.4585L28.3097 13.5716C26.8849 13.5716 25.969 12.6609 25.969 11.1431V11.0419C25.969 9.52402 26.7832 8.51211 28.4115 8.51211H29.8362V9.72639H28.5132C27.5973 9.72639 27.1903 10.2323 27.1903 11.0419V11.1431C27.1903 11.9526 27.6991 12.4585 28.5132 12.4585H28.9203ZM35.0264 13.5716H33.6017L33.1946 12.5597H30.8539L30.4468 13.5716H29.0221L31.1592 8.51211H32.8893L35.0264 13.5716ZM40.0131 13.5716H38.4866L36.3494 10.3335V13.5716H35.0264V8.51211H36.6547L38.6901 11.649V8.51211H40.0131V13.5716Z" fill="var(--fill-0, white)"/>
</g>
</g>
<defs>
<clipPath id="clip0_0_286">
<rect width="44" height="30" fill="white"/>
</clipPath>
</defs>
</svg>
