<svg preserveAspectRatio="none" width="100%" height="100%" overflow="visible" style="display: block;" viewBox="0 0 44 30.0002" fill="none" xmlns="http://www.w3.org/2000/svg">
<g id="Payment Method">
<rect id="BASE" x="0.177721" y="0.177947" width="43.6446" height="29.6446" fill="var(--fill-0, white)" stroke="var(--stroke-0, #DCDCDC)" stroke-width="0.355405"/>
<path id="visa-logo" fill-rule="evenodd" clip-rule="evenodd" d="M13.3575 20.3233H10.6919L8.6931 12.7409C8.59823 12.3921 8.39678 12.0838 8.10047 11.9384C7.36098 11.5732 6.54611 11.2826 5.65716 11.136V10.8441H9.95114C10.5438 10.8441 10.9883 11.2826 11.0623 11.7919L12.0994 17.2612L14.7637 10.8441H17.3552L13.3575 20.3233ZM18.8367 20.3235H16.3194L18.3923 10.8443H20.9097L18.8367 20.3235ZM24.1665 13.4702C24.2406 12.9597 24.6851 12.6677 25.2036 12.6677C26.0185 12.5944 26.9062 12.741 27.6469 13.105L28.0914 11.0641C27.3506 10.7722 26.5358 10.6256 25.7963 10.6256C23.353 10.6256 21.5751 11.9386 21.5751 13.7609C21.5751 15.1472 22.8344 15.8751 23.7234 16.3136C24.6851 16.7508 25.0555 17.0427 24.9814 17.48C24.9814 18.1359 24.2406 18.4278 23.5011 18.4278C22.6122 18.4278 21.7232 18.2092 20.9096 17.8439L20.4652 19.8861C21.3541 20.2501 22.3159 20.3967 23.2048 20.3967C25.9444 20.4687 27.6469 19.157 27.6469 17.1881C27.6469 14.7087 24.1665 14.5633 24.1665 13.4702V13.4702ZM36.4572 20.3235L34.4583 10.8443H32.3113C31.8669 10.8443 31.4224 11.1362 31.2742 11.5735L27.5729 20.3235H30.1643L30.6816 18.9384H33.8657L34.162 20.3235H36.4572ZM32.6817 13.3968L33.4212 16.9693H31.3483L32.6817 13.3968Z" fill="var(--fill-0, #1434CB)"/>
</g>
</svg>
