<svg preserveAspectRatio="none" width="100%" height="100%" overflow="visible" style="display: block;" viewBox="0 0 44 30.0002" fill="none" xmlns="http://www.w3.org/2000/svg">
<g id="Payment Method">
<rect id="BASE" x="0.177712" y="0.177947" width="43.6446" height="29.6446" fill="var(--fill-0, white)" stroke="var(--stroke-0, #DCDCDC)" stroke-width="0.355405"/>
<path id="ApplePay" fill-rule="evenodd" clip-rule="evenodd" d="M10.4924 11.167C11.0833 11.2166 11.6742 10.8697 12.0435 10.4298C12.4067 9.97753 12.6467 9.37039 12.5852 8.75085C12.062 8.77563 11.4157 9.09779 11.0463 9.55005C10.7078 9.94036 10.4185 10.5723 10.4924 11.167ZM17.5217 19.1467V9.48816H21.1226C22.9815 9.48816 24.2802 10.7768 24.2802 12.6602C24.2802 14.5436 22.9568 15.8446 21.0733 15.8446H19.0113V19.1467H17.5217ZM12.5789 11.2847C12.0584 11.2545 11.5834 11.4423 11.1997 11.5939C10.9528 11.6915 10.7437 11.7741 10.5846 11.7741C10.4061 11.7741 10.1884 11.6871 9.94396 11.5893C9.62366 11.4613 9.25747 11.3148 8.87346 11.3219C7.99325 11.3342 7.17459 11.8361 6.72526 12.6353C5.80196 14.2337 6.4852 16.6003 7.37772 17.9013C7.81474 18.5457 8.33794 19.2519 9.02734 19.2272C9.33063 19.2156 9.5488 19.1225 9.77459 19.026C10.0345 18.915 10.3046 18.7997 10.7262 18.7997C11.1332 18.7997 11.3914 18.912 11.6393 19.0198C11.875 19.1223 12.1014 19.2208 12.4374 19.2148C13.1514 19.2024 13.6007 18.5704 14.0378 17.9261C14.5094 17.2346 14.7166 16.5597 14.7481 16.4573L14.7518 16.4454C14.751 16.4447 14.7452 16.442 14.7349 16.4372C14.5772 16.3646 13.3722 15.8094 13.3607 14.3204C13.3491 13.0707 14.3165 12.4375 14.4687 12.3378L14.4688 12.3378C14.478 12.3317 14.4843 12.3276 14.4871 12.3255C13.8716 11.4086 12.9113 11.3095 12.5789 11.2847ZM27.0009 19.2209C27.9365 19.2209 28.8044 18.7439 29.1984 17.9881H29.2291V19.1466H30.6079V14.339C30.6079 12.945 29.5 12.0467 27.795 12.0467C26.213 12.0467 25.0435 12.9574 25.0005 14.2089H26.3423C26.4531 13.6141 27.0009 13.2238 27.7519 13.2238C28.6629 13.2238 29.1737 13.6513 29.1737 14.4381V14.9709L27.3148 15.0824C25.5852 15.1878 24.6496 15.9002 24.6496 17.1393C24.6496 18.3908 25.616 19.2209 27.0009 19.2209ZM27.4009 18.075C26.6069 18.075 26.1021 17.6909 26.1021 17.1023C26.1021 16.4952 26.5884 16.142 27.5179 16.0863L29.1736 15.9809V16.5261C29.1736 17.4307 28.4104 18.075 27.4009 18.075ZM35.1813 19.5245C34.5842 21.2158 33.901 21.7734 32.4483 21.7734C32.3375 21.7734 31.9682 21.761 31.882 21.7362V20.5777C31.9743 20.5901 32.2021 20.6025 32.319 20.6025C32.9777 20.6025 33.347 20.3237 33.5747 19.5988L33.7101 19.1713L31.1865 12.1396H32.7438L34.498 17.8455H34.5288L36.2831 12.1396H37.7973L35.1813 19.5245ZM19.0111 10.7518H20.7285C22.0211 10.7518 22.7597 11.4457 22.7597 12.6662C22.7597 13.8866 22.0211 14.5867 20.7223 14.5867H19.0111V10.7518Z" fill="var(--fill-0, black)"/>
</g>
</svg>
