<svg preserveAspectRatio="none" width="100%" height="100%" overflow="visible" style="display: block;" viewBox="0 0 28.2861 17.258" fill="none" xmlns="http://www.w3.org/2000/svg">
<g id="Mastercard">
<path id="Left" d="M19.707 0C24.4448 0 28.2861 3.86339 28.2861 8.62891C28.2861 13.3944 24.4448 17.2578 19.707 17.2578C17.5828 17.2578 15.6408 16.4788 14.1426 15.1924C12.6444 16.4787 10.7023 17.2578 8.57812 17.2578C3.84051 17.2577 0 13.3943 0 8.62891C5.64273e-06 3.86349 3.84051 0.000161292 8.57812 0C10.7021 0 12.6444 0.778422 14.1426 2.06445C15.6407 0.778313 17.583 5.13643e-05 19.707 0Z" fill="var(--fill-0, #ED0006)"/>
<path id="Right" d="M19.7073 0.000179996C24.445 0.000213434 28.2854 3.86359 28.2854 8.62909C28.2854 13.3946 24.445 17.258 19.7073 17.258C17.5831 17.258 15.6411 16.4789 14.1428 15.1926C15.9862 13.6099 17.1565 11.2579 17.1565 8.62909C17.1565 6.00002 15.9864 3.64729 14.1428 2.06463C15.641 0.778531 17.5833 0.000179996 19.7073 0.000179996Z" fill="var(--fill-0, #F9A000)"/>
<path id="Middle" d="M14.1425 2.06426C15.9862 3.64686 17.1571 5.99961 17.1572 8.62871C17.1572 11.2578 15.9861 13.6105 14.1425 15.1932C12.2991 13.6105 11.1288 11.2576 11.1288 8.62871C11.1289 5.99979 12.299 3.64685 14.1425 2.06426Z" fill="var(--fill-0, #FF5E00)"/>
</g>
</svg>
