<svg preserveAspectRatio="none" width="100%" height="100%" overflow="visible" style="display: block;" viewBox="0 0 35.6283 8.63194" fill="none" xmlns="http://www.w3.org/2000/svg">
<g id="ShopPayDark">
<path id="Subtract" d="M17.1525 1.74002C17.1657 1.74027 17.1784 1.74602 17.1876 1.75565C17.1968 1.76526 17.2023 1.77832 17.2023 1.79178V2.51541C17.5373 2.09239 18.0573 1.74197 18.6778 1.74197C20.071 1.74211 21.168 2.9199 21.1671 4.37283C21.1669 5.88657 20.0644 7.00648 18.7413 7.00662C18.0378 7.00662 17.4989 6.63957 17.3019 6.3328H17.2833V8.55643C17.2833 8.56974 17.2779 8.58216 17.2687 8.59158C17.2594 8.60105 17.2466 8.60721 17.2335 8.60721H15.9943C15.981 8.60721 15.9675 8.60103 15.9581 8.59158C15.949 8.58222 15.9438 8.56965 15.9435 8.55643V1.79178C15.9435 1.77813 15.9487 1.76432 15.9581 1.75467C15.9676 1.74511 15.981 1.74002 15.9943 1.74002H17.1525ZM18.2599 3.06229C18.0043 3.11715 17.7702 3.24815 17.588 3.43924C17.4058 3.63045 17.2832 3.87304 17.2364 4.13553C17.1897 4.39789 17.2208 4.66849 17.3253 4.91287C17.4299 5.15736 17.6039 5.36527 17.8243 5.50858C18.0446 5.65165 18.3016 5.72414 18.5626 5.71756C18.7334 5.71557 18.9027 5.67988 19.0597 5.61112C19.2166 5.54236 19.3585 5.44215 19.4777 5.31717C19.5967 5.19221 19.691 5.04465 19.754 4.8826C19.817 4.72058 19.8475 4.54713 19.8448 4.37283C19.8442 4.10603 19.7656 3.84487 19.6193 3.62381C19.473 3.40295 19.2656 3.23169 19.0235 3.13162C18.7814 3.03152 18.5156 3.00743 18.2599 3.06229Z" fill="var(--fill-0, #5A31F4)"/>
<path id="Vector" d="M9.15064 2.75359C8.86416 2.13999 8.32105 1.74362 7.50266 1.74362C7.25146 1.7481 7.00462 1.81142 6.78119 1.92871C6.55775 2.046 6.36368 2.21412 6.21395 2.42011L6.18409 2.45727V0.0524042C6.18409 0.0385058 6.17868 0.0251774 6.16905 0.0153498C6.15943 0.00552216 6.14638 0 6.13276 0H4.97563C4.96218 0.000249725 4.94936 0.00588058 4.93994 0.0156813C4.93051 0.025482 4.92524 0.0386693 4.92524 0.0524042V6.95067C4.92524 6.96431 4.93055 6.9774 4.94 6.98705C4.94945 6.9967 4.96226 7.00212 4.97563 7.00212H6.21488C6.22833 7.00212 6.24125 6.99673 6.25085 6.98711C6.26045 6.97748 6.26596 6.9644 6.26621 6.95067V4.00938C6.26621 3.4377 6.63948 3.03276 7.23671 3.03276C7.88993 3.03276 8.0551 3.58157 8.0551 4.14086V6.95067C8.0551 6.96431 8.06041 6.9774 8.06986 6.98705C8.07931 6.9967 8.09213 7.00212 8.10549 7.00212H9.34194C9.3554 7.00212 9.36831 6.99673 9.37791 6.98711C9.38751 6.97748 9.39302 6.9644 9.39327 6.95067V3.97317C9.39327 3.87122 9.39327 3.77118 9.3802 3.67399C9.35897 3.35552 9.28118 3.04364 9.15064 2.75359V2.75359Z" fill="var(--fill-0, #5A31F4)"/>
<path id="Vector_2" d="M2.96285 3.7759C2.96285 3.7759 2.33203 3.6244 2.09967 3.56342C1.86731 3.50245 1.46138 3.37286 1.46138 3.05939C1.46138 2.74592 1.78892 2.64588 2.12113 2.64588C2.45334 2.64588 2.82288 2.72782 2.85181 3.10417C2.85298 3.11774 2.85909 3.13036 2.86894 3.13953C2.87879 3.14871 2.89166 3.15377 2.905 3.15372L4.12652 3.14896C4.13371 3.14898 4.14082 3.14748 4.14742 3.14456C4.15402 3.14165 4.15995 3.13737 4.16486 3.13201C4.16976 3.12664 4.17353 3.1203 4.17592 3.11338C4.17832 3.10646 4.17929 3.09911 4.17878 3.09179C4.10319 1.88745 3.0683 1.45679 2.11367 1.45679C0.981729 1.45679 0.154006 2.21902 0.154006 3.05939C0.154006 3.673 0.323843 4.24849 1.65921 4.64866C1.89344 4.71822 2.21165 4.80873 2.48974 4.88781C2.82381 4.98309 3.00391 5.12697 3.00391 5.35373C3.00391 5.6167 2.63064 5.79964 2.26391 5.79964C1.73293 5.79964 1.35593 5.5986 1.32514 5.23749C1.32354 5.22427 1.31723 5.21211 1.30742 5.20333C1.29762 5.19455 1.28499 5.18975 1.27195 5.18985L0.0532228 5.19557C0.0460779 5.19556 0.0390062 5.19703 0.0324281 5.19988C0.0258499 5.20272 0.0199012 5.20689 0.0149368 5.21214C0.00997239 5.21739 0.00609334 5.2236 0.00353273 5.23041C0.000972114 5.23722 -0.000217938 5.24449 3.27645e-05 5.25178C0.0560231 6.38847 1.13104 7.00112 2.13326 7.00112C3.62634 7.00112 4.30102 6.1436 4.30102 5.34039C4.30289 4.96309 4.21797 4.10366 2.96285 3.7759Z" fill="var(--fill-0, #5A31F4)"/>
<path id="Vector_3" d="M12.2732 1.44434C11.117 1.44434 10.5403 1.84546 10.0774 2.16656L10.0634 2.17608C10.0396 2.19277 10.0228 2.21804 10.0164 2.24683C10.01 2.27562 10.0144 2.30582 10.0289 2.33139L10.4861 3.13555C10.4947 3.1506 10.5064 3.16353 10.5205 3.17341C10.5345 3.18329 10.5505 3.18989 10.5673 3.19272C10.5838 3.19575 10.6007 3.19502 10.6168 3.19057C10.633 3.18612 10.6479 3.17807 10.6607 3.16699L10.697 3.1365C10.935 2.93261 11.3167 2.66011 12.2405 2.58579C12.7547 2.54386 13.1989 2.68107 13.5264 2.99358C13.8866 3.33278 14.1022 3.88064 14.1022 4.45899C14.1022 5.52327 13.4882 6.19213 12.5018 6.20547C11.689 6.2007 11.1431 5.76813 11.1431 5.12881C11.1431 4.78961 11.2933 4.56856 11.5864 4.34751C11.6087 4.33117 11.6245 4.30712 11.6309 4.2798C11.6372 4.25247 11.6337 4.22373 11.6209 4.19887L11.2103 3.40615C11.2027 3.39196 11.1925 3.37944 11.1801 3.3693C11.1678 3.35917 11.1536 3.35161 11.1384 3.34707C11.1229 3.34235 11.1066 3.34101 11.0905 3.34314C11.0744 3.34528 11.059 3.35084 11.0451 3.35946C10.5841 3.63863 10.0186 4.14933 10.0494 5.13071C10.0868 6.37983 11.1039 7.33358 12.4262 7.37264H12.4925H12.583C14.1545 7.32024 15.2892 6.12924 15.2892 4.51425C15.2892 3.0317 14.231 1.44434 12.2732 1.44434Z" fill="var(--fill-0, #5A31F4)"/>
<path id="Subtract_2" d="M34.306 0.0167066C35.0362 0.0167066 35.6282 0.620774 35.6283 1.36632V7.28136C35.6283 8.027 35.0363 8.63194 34.306 8.63194H23.725C22.9947 8.6319 22.4027 8.02698 22.4027 7.28136V1.36632C22.4028 0.6208 22.9948 0.0167491 23.725 0.0167066H34.306ZM30.9974 3.05577C30.9863 3.05594 30.9751 3.05926 30.9652 3.06456C30.9555 3.06978 30.9472 3.07699 30.9408 3.08604C30.9344 3.09524 30.9298 3.10614 30.9281 3.11729C30.9264 3.12855 30.9275 3.14067 30.931 3.15147L32.0824 6.17198C32.0879 6.18749 32.0879 6.20433 32.0824 6.21983L32.0462 6.33702C32.0038 6.4824 31.9146 6.60978 31.7933 6.69737C31.6721 6.78479 31.5255 6.82794 31.3773 6.82042C31.2912 6.82032 31.205 6.81237 31.1205 6.796C31.1102 6.79404 31.0993 6.79429 31.0892 6.79698C31.0793 6.79966 31.0698 6.80398 31.0619 6.81065C31.0539 6.81743 31.0477 6.82647 31.0433 6.83604C31.0389 6.84571 31.0364 6.85663 31.0365 6.86729V7.37706C31.0357 7.39337 31.04 7.40958 31.0492 7.42296C31.0584 7.43633 31.0719 7.44654 31.0873 7.45128C31.1848 7.47841 31.286 7.49088 31.3871 7.48839C31.9236 7.48839 32.4138 7.28821 32.6937 6.50889L33.9252 3.1544C33.9287 3.1436 33.9297 3.13148 33.9281 3.12022C33.9264 3.10906 33.9228 3.09818 33.9164 3.08897C33.9099 3.0797 33.9008 3.07278 33.891 3.06749C33.8813 3.06227 33.8707 3.05894 33.8597 3.0587H33.2855C33.2706 3.05857 33.2556 3.06346 33.2435 3.07237C33.2315 3.08127 33.2227 3.09411 33.2181 3.1085L32.5394 5.23253C32.5342 5.24645 32.525 5.25922 32.513 5.26768C32.5012 5.27589 32.4873 5.28029 32.473 5.28038C32.4586 5.28038 32.4439 5.276 32.432 5.26768C32.42 5.25922 32.4108 5.24645 32.4056 5.23253L31.6234 3.10264C31.6182 3.089 31.6088 3.07679 31.597 3.06846C31.5853 3.06028 31.5712 3.05591 31.557 3.05577H30.9974ZM29.2435 2.97276C28.388 2.97283 27.9868 3.34945 27.9046 3.84483C27.9032 3.85493 27.9038 3.8653 27.9066 3.87511C27.9095 3.88498 27.9146 3.89473 27.9212 3.90245C27.9279 3.91003 27.9365 3.91596 27.9457 3.92003C27.9548 3.92405 27.965 3.92614 27.975 3.92589H28.5228C28.5377 3.92639 28.5527 3.92209 28.5648 3.91319C28.5769 3.90422 28.5851 3.89075 28.5892 3.87608C28.6415 3.66759 28.8648 3.54024 29.2181 3.54014C29.5718 3.54014 29.7923 3.68227 29.7923 4.01671V4.1837L29.2377 4.20323C28.7141 4.22419 28.3609 4.315 28.1332 4.48936C28.0207 4.5715 27.9301 4.68082 27.8695 4.80772C27.8089 4.93484 27.7804 5.07565 27.7865 5.2169C27.7865 5.7962 28.2034 6.13189 28.8314 6.12999C29.2596 6.12996 29.5286 5.99647 29.6937 5.81261C29.7006 5.80354 29.7102 5.7971 29.7211 5.79405C29.7317 5.79108 29.743 5.79106 29.7533 5.79503C29.7636 5.79913 29.7727 5.807 29.7787 5.81651C29.7846 5.82626 29.7874 5.83826 29.7865 5.84971V5.98057C29.7864 5.98988 29.7889 5.99928 29.7923 6.00792C29.7958 6.01658 29.8006 6.0247 29.807 6.03136C29.8134 6.03799 29.821 6.04334 29.8295 6.04698C29.838 6.05063 29.8475 6.05284 29.8568 6.05284H30.4105C30.4196 6.0528 30.4285 6.05052 30.4369 6.04698C30.4454 6.04333 30.4538 6.03809 30.4603 6.03136C30.4667 6.02469 30.4715 6.01658 30.475 6.00792C30.4784 5.99928 30.4799 5.98988 30.4798 5.98057V4.22862C30.4798 3.40461 30.1523 2.97276 29.2435 2.97276ZM24.5404 1.54503C24.5219 1.54506 24.5037 1.55216 24.4906 1.56553C24.4775 1.57892 24.4701 1.59741 24.4701 1.61632V5.9835C24.4704 6.00221 24.4786 6.02007 24.4916 6.03331C24.5046 6.04654 24.522 6.05451 24.5404 6.05479H25.1263C25.1449 6.05479 25.163 6.04671 25.1761 6.03331C25.189 6.02003 25.1965 6.0022 25.1966 5.9835V4.77257C25.1967 4.75381 25.2042 4.73605 25.2171 4.72276C25.2303 4.70936 25.2484 4.70128 25.267 4.70128H26.099C26.9816 4.70124 27.6134 4.04426 27.6136 3.12315C27.6136 2.20658 26.9817 1.54506 26.099 1.54503H24.5404ZM29.7923 4.83702C29.7922 5.30658 29.5082 5.57139 29.0287 5.57139C28.6763 5.57128 28.4741 5.43512 28.474 5.19053C28.474 4.92001 28.6949 4.75846 29.0736 4.73839L29.7923 4.7003V4.83702ZM26.0541 2.20811C26.5337 2.20811 26.8871 2.5953 26.8871 3.12315C26.8869 3.65174 26.5336 4.03721 26.0541 4.03721H25.267C25.2486 4.03722 25.2302 4.0299 25.2171 4.01671C25.2042 4.00353 25.1969 3.98561 25.1966 3.9669V2.2794C25.1969 2.26069 25.2043 2.24289 25.2171 2.2296C25.2302 2.21625 25.2485 2.20836 25.267 2.20811H26.0541Z" fill="var(--fill-0, #5A31F4)"/>
</g>
</svg>
