<svg preserveAspectRatio="none" width="100%" height="100%" overflow="visible" style="display: block;" viewBox="0 0 35.3851 9.37504" fill="none" xmlns="http://www.w3.org/2000/svg">
<g id="Group 75">
<path id="Vector" fill-rule="evenodd" clip-rule="evenodd" d="M4.2462 0.00100946H1.49397C1.30563 0.00100946 1.14545 0.137098 1.11608 0.321883L0.00293675 7.33852C-0.0191879 7.47701 0.0886615 7.60181 0.22992 7.60181H1.54386C1.7322 7.60181 1.89238 7.46572 1.92175 7.28057L2.22198 5.3881C2.25094 5.20276 2.41151 5.06685 2.59946 5.06685H3.47072C5.28371 5.06685 6.32998 4.19459 6.60337 2.46616C6.72647 1.70999 6.60858 1.11583 6.25232 0.699598C5.86122 0.242821 5.16731 0.00100946 4.2462 0.00100946ZM4.56373 2.56374C4.41325 3.54562 3.65867 3.54562 2.92906 3.54562H2.51373L2.8051 1.71184C2.8224 1.60112 2.91898 1.51947 3.03167 1.51947H3.22202C3.71902 1.51947 4.18791 1.51946 4.4302 1.80109C4.57453 1.96921 4.61885 2.2188 4.56373 2.56374ZM12.4733 2.53226H11.1553C11.043 2.53226 10.946 2.61392 10.9287 2.72482L10.8704 3.09125L10.7782 2.95849C10.4929 2.54671 9.8567 2.40914 9.22164 2.40914C7.7651 2.40914 6.52124 3.50581 6.27895 5.04426C6.15305 5.81155 6.33203 6.54531 6.76986 7.05708C7.17157 7.52756 7.74629 7.72364 8.42996 7.72364C9.60342 7.72364 10.2543 6.97339 10.2543 6.97339L10.1955 7.33759C10.1733 7.47683 10.2811 7.60162 10.4215 7.60162H11.6088C11.7976 7.60162 11.9569 7.46553 11.9867 7.28038L12.699 2.79555C12.7215 2.65761 12.6141 2.53226 12.4733 2.53226ZM10.6361 5.08259C10.5089 5.83117 9.91127 6.33368 9.1492 6.33368C8.76648 6.33368 8.4605 6.21167 8.26421 5.98041C8.06941 5.75082 7.99529 5.42383 8.0573 5.05982C8.17612 4.31753 8.7838 3.79872 9.53433 3.79872C9.90847 3.79872 10.2128 3.92222 10.4132 4.15552C10.6139 4.39122 10.6936 4.72005 10.6361 5.08259ZM18.1682 2.53208H19.4927C19.6782 2.53208 19.7864 2.7389 19.6809 2.89017L15.2759 9.21173C15.2046 9.31412 15.0871 9.37504 14.9616 9.37504H13.6388C13.4525 9.37504 13.3438 9.16655 13.4516 9.01491L14.8232 7.09004L13.3644 2.8337C13.314 2.68576 13.4238 2.53208 13.5821 2.53208H14.8835C15.0526 2.53208 15.2018 2.64243 15.2506 2.80333L16.0248 5.37402L17.8516 2.6989C17.9231 2.59448 18.0419 2.53208 18.1682 2.53208Z" fill="var(--fill-0, #253B80)"/>
<path id="Vector_2" fill-rule="evenodd" clip-rule="evenodd" d="M32.5287 7.33788L33.6582 0.192932C33.6756 0.0820243 33.7722 0.00037031 33.8845 0H35.1561C35.2966 0 35.4044 0.125164 35.3822 0.26366L34.2684 7.27993C34.2393 7.46508 34.0791 7.60117 33.8905 7.60117H32.7548C32.6144 7.60117 32.5066 7.47637 32.5287 7.33788ZM23.8783 0.000370813H21.1256C20.9377 0.000370813 20.7775 0.136459 20.7481 0.321244L19.635 7.33788C19.6128 7.47637 19.7206 7.60117 19.8612 7.60117H21.2736C21.4049 7.60117 21.5172 7.506 21.5377 7.37639L21.8536 5.38746C21.8826 5.20212 22.0432 5.06621 22.2311 5.06621H23.1019C24.9153 5.06621 25.9614 4.19395 26.2349 2.46552C26.3584 1.70935 26.2398 1.11519 25.8837 0.698959C25.4928 0.242182 24.7994 0.000370813 23.8783 0.000370813ZM24.1959 2.5631C24.0458 3.54498 23.2911 3.54498 22.5611 3.54498H22.1462L22.438 1.7112C22.4553 1.60048 22.551 1.51883 22.6641 1.51883H22.8544C23.3511 1.51883 23.8204 1.51883 24.0625 1.80045C24.207 1.96857 24.251 2.21816 24.1959 2.5631ZM32.1047 2.53162H30.7876C30.6744 2.53162 30.5783 2.61328 30.5614 2.72419L30.5031 3.09061L30.4105 2.95785C30.1252 2.54607 29.4894 2.4085 28.8543 2.4085C27.3978 2.4085 26.1543 3.50517 25.912 5.04362C25.7865 5.81091 25.9647 6.54467 26.4025 7.05644C26.805 7.52692 27.379 7.723 28.0626 7.723C29.2361 7.723 29.8868 6.97275 29.8868 6.97275L29.8281 7.33695C29.806 7.47619 29.9138 7.60098 30.0552 7.60098H31.2419C31.4298 7.60098 31.5899 7.46489 31.6194 7.27974L32.3321 2.79492C32.3539 2.65698 32.246 2.53162 32.1047 2.53162ZM30.2677 5.08195C30.1412 5.83053 29.5428 6.33304 28.7806 6.33304C28.3986 6.33304 28.0921 6.21103 27.8956 5.97977C27.7008 5.75018 27.6276 5.42319 27.6889 5.05918C27.8082 4.31689 28.4152 3.79808 29.1657 3.79808C29.54 3.79808 29.8442 3.92158 30.0447 4.15488C30.2462 4.39058 30.326 4.71941 30.2677 5.08195Z" fill="var(--fill-0, #179BD7)"/>
</g>
</svg>
