<svg preserveAspectRatio="none" width="100%" height="100%" overflow="visible" style="display: block;" viewBox="0 0 17 17" fill="none" xmlns="http://www.w3.org/2000/svg">
<path id="Vector" d="M1.5 15.5H2.7615L12.998 5.2635L11.7365 4.002L1.5 14.2385V15.5ZM0 17V13.6155L13.1905 0.43075C13.3417 0.293416 13.5086 0.187333 13.6913 0.1125C13.8741 0.0375 14.0658 0 14.2663 0C14.4668 0 14.6609 0.0355838 14.8488 0.10675C15.0368 0.177917 15.2032 0.291083 15.348 0.446249L16.5693 1.68275C16.7244 1.82758 16.835 1.99425 16.901 2.18275C16.967 2.37125 17 2.55975 17 2.74825C17 2.94942 16.9657 3.14133 16.897 3.324C16.8283 3.50683 16.7191 3.67383 16.5693 3.825L3.3845 17H0ZM12.3562 4.64375L11.7365 4.002L12.998 5.2635L12.3562 4.64375Z" fill="var(--fill-0, black)"/>
</svg>
