<svg preserveAspectRatio="none" width="100%" height="100%" overflow="visible" style="display: block;" viewBox="0 0 19 19.9807" fill="none" xmlns="http://www.w3.org/2000/svg">
<path id="Vector" d="M1.6155 19.9807V9.096H0V3.88475H5.17125C5.03025 3.72192 4.93442 3.5385 4.88375 3.3345C4.83308 3.13067 4.80775 2.91658 4.80775 2.69225C4.80775 1.94442 5.0695 1.30875 5.593 0.785249C6.1165 0.261749 6.75217 0 7.5 0C7.88333 0 8.2385 0.0804157 8.5655 0.241249C8.89233 0.402249 9.18458 0.617332 9.44225 0.886499C9.69992 0.606999 9.99225 0.389416 10.3193 0.233749C10.6461 0.0779161 11.0012 0 11.3845 0C12.1325 0 12.7682 0.261749 13.2917 0.785249C13.8152 1.30875 14.077 1.94442 14.077 2.69225C14.077 2.91408 14.0491 3.125 13.9932 3.325C13.9374 3.525 13.8442 3.71158 13.7135 3.88475H19V9.096H17.3845V19.9807H1.6155ZM11.3845 1.5C11.0467 1.5 10.7635 1.61425 10.535 1.84275C10.3065 2.07125 10.1923 2.35442 10.1923 2.69225C10.1923 3.03008 10.3065 3.31325 10.535 3.54175C10.7635 3.77042 11.0467 3.88475 11.3845 3.88475C11.7223 3.88475 12.0056 3.77042 12.2343 3.54175C12.4628 3.31325 12.577 3.03008 12.577 2.69225C12.577 2.35442 12.4628 2.07125 12.2343 1.84275C12.0056 1.61425 11.7223 1.5 11.3845 1.5ZM6.30775 2.69225C6.30775 3.03008 6.422 3.31325 6.6505 3.54175C6.879 3.77042 7.16217 3.88475 7.5 3.88475C7.83783 3.88475 8.121 3.77042 8.3495 3.54175C8.578 3.31325 8.69225 3.03008 8.69225 2.69225C8.69225 2.35442 8.578 2.07125 8.3495 1.84275C8.121 1.61425 7.83783 1.5 7.5 1.5C7.16217 1.5 6.879 1.61425 6.6505 1.84275C6.422 2.07125 6.30775 2.35442 6.30775 2.69225ZM1.5 5.3845V7.59625H8.75V5.3845H1.5ZM8.75 18.4807V9.096H3.11525V18.4807H8.75ZM10.25 18.4807H15.8848V9.096H10.25V18.4807ZM17.5 7.59625V5.3845H10.25V7.59625H17.5Z" fill="var(--fill-0, black)"/>
</svg>
