<svg preserveAspectRatio="none" width="100%" height="100%" overflow="visible" style="display: block;" viewBox="0 0 17 19.5" fill="none" xmlns="http://www.w3.org/2000/svg">
<path id="Vector" d="M1.80775 19.5C1.30908 19.5 0.883083 19.3234 0.52975 18.9703C0.176583 18.6169 0 18.1909 0 17.6923V6.30775C0 5.80908 0.176583 5.38308 0.52975 5.02975C0.883083 4.67658 1.30908 4.5 1.80775 4.5H4C4 3.25133 4.43783 2.18917 5.3135 1.3135C6.18917 0.437833 7.25133 0 8.5 0C9.74867 0 10.8108 0.437833 11.6865 1.3135C12.5622 2.18917 13 3.25133 13 4.5H15.1923C15.6909 4.5 16.1169 4.67658 16.4703 5.02975C16.8234 5.38308 17 5.80908 17 6.30775V17.6923C17 18.1909 16.8234 18.6169 16.4703 18.9703C16.1169 19.3234 15.6909 19.5 15.1923 19.5H1.80775ZM1.80775 18H15.1923C15.2693 18 15.3398 17.9679 15.4038 17.9038C15.4679 17.8398 15.5 17.7693 15.5 17.6923V6.30775C15.5 6.23075 15.4679 6.16025 15.4038 6.09625C15.3398 6.03208 15.2693 6 15.1923 6H1.80775C1.73075 6 1.66025 6.03208 1.59625 6.09625C1.53208 6.16025 1.5 6.23075 1.5 6.30775V17.6923C1.5 17.7693 1.53208 17.8398 1.59625 17.9038C1.66025 17.9679 1.73075 18 1.80775 18ZM8.5 11.5C9.74867 11.5 10.8108 11.0622 11.6865 10.1865C12.5622 9.31083 13 8.24867 13 7H11.5C11.5 7.83333 11.2083 8.54167 10.625 9.125C10.0417 9.70833 9.33333 10 8.5 10C7.66667 10 6.95833 9.70833 6.375 9.125C5.79167 8.54167 5.5 7.83333 5.5 7H4C4 8.24867 4.43783 9.31083 5.3135 10.1865C6.18917 11.0622 7.25133 11.5 8.5 11.5ZM5.5 4.5H11.5C11.5 3.66667 11.2083 2.95833 10.625 2.375C10.0417 1.79167 9.33333 1.5 8.5 1.5C7.66667 1.5 6.95833 1.79167 6.375 2.375C5.79167 2.95833 5.5 3.66667 5.5 4.5Z" fill="var(--fill-0, black)"/>
</svg>
