<svg preserveAspectRatio="none" width="100%" height="100%" overflow="visible" style="display: block;" viewBox="0 0 21.3075 15.0577" fill="none" xmlns="http://www.w3.org/2000/svg">
<path id="Vector" d="M4.49775 15.0577C3.71708 15.0577 3.05433 14.7847 2.5095 14.2387C1.96467 13.6927 1.69225 13.0298 1.69225 12.25H0V1.80775C0 1.30258 0.175 0.875 0.525 0.525C0.875 0.175 1.3025 0 1.8075 0H15.423V3.80775H18.0767L21.3075 8.13475V12.25H19.5C19.5 13.0298 19.2268 13.6927 18.6803 14.2387C18.1339 14.7847 17.4705 15.0577 16.69 15.0577C15.9095 15.0577 15.2468 14.7847 14.7018 14.2387C14.1569 13.6927 13.8845 13.0298 13.8845 12.25H7.3075C7.3075 13.032 7.03433 13.6954 6.488 14.2402C5.94167 14.7852 5.27825 15.0577 4.49775 15.0577ZM4.5 13.5577C4.86667 13.5577 5.17625 13.4314 5.42875 13.1788C5.68125 12.9263 5.8075 12.6167 5.8075 12.25C5.8075 11.8833 5.68125 11.5737 5.42875 11.321C5.17625 11.0685 4.86667 10.9423 4.5 10.9423C4.13333 10.9423 3.82367 11.0685 3.571 11.321C3.3185 11.5737 3.19225 11.8833 3.19225 12.25C3.19225 12.6167 3.3185 12.9263 3.571 13.1788C3.82367 13.4314 4.13333 13.5577 4.5 13.5577ZM1.5 10.75H2.223C2.43583 10.3795 2.74317 10.0689 3.145 9.81825C3.547 9.56758 3.99867 9.44225 4.5 9.44225C4.98833 9.44225 5.43667 9.566 5.845 9.8135C6.25333 10.061 6.56392 10.3732 6.77675 10.75H13.923V1.5H1.8075C1.73067 1.5 1.66017 1.53208 1.596 1.59625C1.532 1.66025 1.5 1.73075 1.5 1.80775V10.75ZM16.6923 13.5577C17.0589 13.5577 17.3685 13.4314 17.621 13.1788C17.8737 12.9263 18 12.6167 18 12.25C18 11.8833 17.8737 11.5737 17.621 11.321C17.3685 11.0685 17.0589 10.9423 16.6923 10.9423C16.3256 10.9423 16.0159 11.0685 15.7633 11.321C15.5108 11.5737 15.3845 11.8833 15.3845 12.25C15.3845 12.6167 15.5108 12.9263 15.7633 13.1788C16.0159 13.4314 16.3256 13.5577 16.6923 13.5577ZM15.423 8.75H19.9038L17.3075 5.30775H15.423V8.75Z" fill="var(--fill-0, black)"/>
</svg>
