<svg preserveAspectRatio="none" width="100%" height="100%" overflow="visible" style="display: block;" viewBox="0 0 15.096 19.0095" fill="none" xmlns="http://www.w3.org/2000/svg">
<path id="Vector" d="M7.54975 9.36525C8.04725 9.36525 8.47258 9.18808 8.82575 8.83375C9.17908 8.47942 9.35575 8.0535 9.35575 7.556C9.35575 7.0585 9.17858 6.63308 8.82425 6.27975C8.46992 5.92658 8.04392 5.75 7.54625 5.75C7.04875 5.75 6.62342 5.92717 6.27025 6.2815C5.91692 6.63583 5.74025 7.06183 5.74025 7.5595C5.74025 8.057 5.91742 8.48233 6.27175 8.8355C6.62608 9.18867 7.05208 9.36525 7.54975 9.36525ZM7.548 19.0095C5.03133 16.8288 3.14417 14.7994 1.8865 12.9212C0.628833 11.0429 0 9.3185 0 7.748C0 5.44033 0.746417 3.57208 2.23925 2.14325C3.73225 0.714416 5.50183 0 7.548 0C9.59417 0 11.3637 0.714416 12.8567 2.14325C14.3496 3.57208 15.096 5.44033 15.096 7.748C15.096 9.3185 14.4672 11.0429 13.2095 12.9212C11.9518 14.7994 10.0647 16.8288 7.548 19.0095Z" fill="var(--fill-0, black)"/>
</svg>
