<svg preserveAspectRatio="none" width="100%" height="100%" overflow="visible" style="display: block;" viewBox="0 0 17 19.6923" fill="none" xmlns="http://www.w3.org/2000/svg">
<path id="Vector" d="M8.5 19.6923C7.3205 19.6923 6.21542 19.4692 5.18475 19.023C4.15392 18.5768 3.25517 17.9704 2.4885 17.2038C1.72183 16.4371 1.11542 15.5383 0.66925 14.5075C0.223083 13.4768 0 12.3718 0 11.1923H1.5C1.5 13.1423 2.17917 14.7964 3.5375 16.1548C4.89583 17.5131 6.55 18.1923 8.5 18.1923C10.45 18.1923 12.1042 17.5131 13.4625 16.1548C14.8208 14.7964 15.5 13.1423 15.5 11.1923C15.5 9.24225 14.8208 7.58808 13.4625 6.22975C12.1042 4.87142 10.45 4.19225 8.5 4.19225H8.2345L9.823 5.78075L8.76925 6.86525L5.34625 3.43275L8.7885 0L9.84225 1.0845L8.2345 2.69225H8.5C9.6795 2.69225 10.7846 2.91533 11.8152 3.3615C12.8461 3.80767 13.7448 4.41408 14.5115 5.18075C15.2782 5.94742 15.8846 6.84617 16.3307 7.877C16.7769 8.90767 17 10.0128 17 11.1923C17 12.3718 16.7769 13.4768 16.3307 14.5075C15.8846 15.5383 15.2782 16.4371 14.5115 17.2038C13.7448 17.9704 12.8461 18.5768 11.8152 19.023C10.7846 19.4692 9.6795 19.6923 8.5 19.6923Z" fill="var(--fill-0, black)"/>
</svg>
