<svg preserveAspectRatio="none" width="100%" height="100%" overflow="visible" style="display: block;" viewBox="0 0 19.6226 17.5" fill="none" xmlns="http://www.w3.org/2000/svg">
<path id="Vector" d="M18.5612 7.723V15.6923C18.5612 16.1974 18.3862 16.625 18.0362 16.975C17.6862 17.325 17.2587 17.5 16.7537 17.5H2.86894C2.36394 17.5 1.93644 17.325 1.58644 16.975C1.23644 16.625 1.06144 16.1974 1.06144 15.6923V7.70375C0.658774 7.37308 0.356524 6.94392 0.154691 6.41625C-0.0473092 5.88875 -0.0514759 5.31925 0.142191 4.70775L1.15369 1.40375C1.28702 0.983251 1.51327 0.644167 1.83244 0.386501C2.15177 0.128834 2.53319 0 2.97669 0H16.6267C17.0704 0 17.4492 0.123084 17.7632 0.369251C18.0774 0.615417 18.3062 0.953917 18.4497 1.38475L19.4804 4.70775C19.6741 5.31925 19.6699 5.88683 19.4679 6.4105C19.2661 6.93433 18.9639 7.37183 18.5612 7.723ZM12.0114 7C12.5576 7 12.9682 6.833 13.2432 6.499C13.5182 6.165 13.6307 5.80633 13.5807 5.423L12.9729 1.5H10.5612V5.45C10.5612 5.8705 10.7035 6.234 10.9882 6.5405C11.2729 6.84683 11.6139 7 12.0114 7ZM7.51144 7C7.97161 7 8.34494 6.84683 8.63144 6.5405C8.91811 6.234 9.06144 5.8705 9.06144 5.45V1.5H6.64969L6.04219 5.4615C5.98819 5.81667 6.09969 6.16192 6.37669 6.49725C6.65369 6.83242 7.03194 7 7.51144 7ZM3.06144 7C3.43194 7 3.75052 6.87083 4.01719 6.6125C4.28386 6.35417 4.44861 6.0295 4.51144 5.6385L5.09969 1.5H2.97669C2.86769 1.5 2.78119 1.524 2.71719 1.572C2.65302 1.62017 2.60494 1.69233 2.57294 1.7885L1.61119 5.04225C1.47919 5.47175 1.54144 5.90542 1.79794 6.34325C2.05427 6.78108 2.47544 7 3.06144 7ZM16.5614 7C17.1024 7 17.5165 6.7875 17.8037 6.3625C18.0909 5.9375 18.1601 5.49742 18.0114 5.04225L16.9997 1.76925C16.9677 1.67308 16.9197 1.60417 16.8557 1.5625C16.7915 1.52083 16.7049 1.5 16.5959 1.5H14.5229L15.1112 5.6385C15.174 6.0295 15.3388 6.35417 15.6054 6.6125C15.8721 6.87083 16.1908 7 16.5614 7ZM2.86894 16H16.7537C16.8434 16 16.917 15.9712 16.9747 15.9135C17.0325 15.8558 17.0614 15.7821 17.0614 15.6923V8.4115C16.9524 8.45133 16.8614 8.476 16.7882 8.4855C16.7152 8.49517 16.6396 8.5 16.5614 8.5C16.1114 8.5 15.7156 8.41858 15.3739 8.25575C15.0323 8.09292 14.7011 7.832 14.3804 7.473C14.0998 7.78583 13.7678 8.03525 13.3844 8.22125C13.0011 8.40708 12.5639 8.5 12.0729 8.5C11.6486 8.5 11.2486 8.41183 10.8729 8.2355C10.4973 8.05933 10.1434 7.80517 9.81144 7.473C9.50244 7.80517 9.15244 8.05933 8.76144 8.2355C8.37028 8.41183 7.97411 8.5 7.57294 8.5C7.12161 8.5 6.69852 8.41825 6.30369 8.25475C5.90886 8.09125 5.56144 7.83067 5.26144 7.473C4.84077 7.8935 4.45319 8.16983 4.09869 8.302C3.74436 8.434 3.39861 8.5 3.06144 8.5C2.98311 8.5 2.90227 8.49517 2.81894 8.4855C2.73561 8.476 2.64969 8.45133 2.56119 8.4115V15.6923C2.56119 15.7821 2.59011 15.8558 2.64794 15.9135C2.70561 15.9712 2.77927 16 2.86894 16Z" fill="var(--fill-0, black)"/>
</svg>
