<svg preserveAspectRatio="none" width="100%" height="100%" overflow="visible" style="display: block;" viewBox="0 0 20 18.596" fill="none" xmlns="http://www.w3.org/2000/svg">
<path id="Vector" d="M15.2308 18.596H4.7115V6.596L11.3462 0L12.1923 0.846001C12.2961 0.949834 12.3823 1.08733 12.451 1.2585C12.5195 1.42967 12.5538 1.59092 12.5538 1.74225V1.996L11.4923 6.596H18.1923C18.6679 6.596 19.0881 6.77842 19.4527 7.14325C19.8176 7.50792 20 7.92808 20 8.40375V10.019C20 10.1228 19.9865 10.235 19.9595 10.3555C19.9327 10.476 19.9026 10.5883 19.8693 10.6923L17.0038 17.4538C16.8603 17.7743 16.6199 18.0448 16.2828 18.2653C15.9456 18.4858 15.5949 18.596 15.2308 18.596ZM6.2115 17.096H15.2308C15.3013 17.096 15.3733 17.0768 15.447 17.0383C15.5208 16.9998 15.577 16.9357 15.6155 16.846L18.5 10.096V8.40375C18.5 8.31392 18.4712 8.24017 18.4135 8.1825C18.3558 8.12484 18.2821 8.096 18.1923 8.096H9.59625L10.85 2.61525L6.2115 7.2345V17.096ZM4.7115 6.596V8.096H1.5V17.096H4.7115V18.596H0V6.596H4.7115Z" fill="var(--fill-0, black)"/>
</svg>
