<svg preserveAspectRatio="none" width="100%" height="100%" overflow="visible" style="display: block;" viewBox="0 0 20 18.596" fill="none" xmlns="http://www.w3.org/2000/svg">
<path id="Vector" d="M4.76925 0H15.2885V11.9998L8.65375 18.596L7.80775 17.7498C7.70392 17.6459 7.61767 17.5084 7.549 17.3373C7.4805 17.1661 7.44625 17.0049 7.44625 16.8538V16.5998L8.50775 11.9998H1.80775C1.33208 11.9998 0.911917 11.8174 0.54725 11.4528C0.182417 11.0879 0 10.6678 0 10.1923V8.57675C0 8.47292 0.0135 8.36075 0.0405 8.24025C0.0673333 8.11975 0.0974168 8.00758 0.13075 7.90375L2.99625 1.14225C3.13975 0.82175 3.38008 0.551251 3.71725 0.330751C4.05442 0.110251 4.40508 0 4.76925 0ZM13.7885 1.5H4.76925C4.69875 1.5 4.62667 1.51917 4.553 1.5575C4.47917 1.596 4.423 1.66017 4.3845 1.75L1.5 8.5V10.1923C1.5 10.2819 1.52883 10.3556 1.5865 10.4133C1.64417 10.4711 1.71792 10.5 1.80775 10.5H10.4038L9.15 15.9808L13.7885 11.3615V1.5ZM15.2885 11.9998V10.5H18.5V1.5H15.2885V0H20V11.9998H15.2885Z" fill="var(--fill-0, black)"/>
</svg>
