<svg preserveAspectRatio="none" width="100%" height="100%" overflow="visible" style="display: block;" viewBox="0 0 15 15" fill="none" xmlns="http://www.w3.org/2000/svg">
<path id="Vector" d="M6.75 15V6.6L4.28475 9.06525L3.23075 7.98075L7.5 3.7115L11.7693 7.98075L10.7153 9.06525L8.25 6.6V15H6.75ZM0 4.51925V1.80775C0 1.30258 0.175 0.875 0.525 0.525C0.875 0.175 1.30258 0 1.80775 0H13.1923C13.6974 0 14.125 0.175 14.475 0.525C14.825 0.875 15 1.30258 15 1.80775V4.51925H13.5V1.80775C13.5 1.73075 13.4679 1.66025 13.4038 1.59625C13.3398 1.53208 13.2693 1.5 13.1923 1.5H1.80775C1.73075 1.5 1.66025 1.53208 1.59625 1.59625C1.53208 1.66025 1.5 1.73075 1.5 1.80775V4.51925H0Z" fill="var(--fill-0, black)"/>
</svg>
