<svg preserveAspectRatio="none" width="100%" height="100%" overflow="visible" style="display: block;" viewBox="0 0 20.6535 19.7305" fill="none" xmlns="http://www.w3.org/2000/svg">
<path id="Vector" d="M7.13825 19.7305L5.35375 16.723L1.96525 15.9805L2.296 12.4922L0 9.86525L2.296 7.23825L1.96525 3.75L5.35375 3.0075L7.13825 0L10.3268 1.35375L13.5153 0L15.2998 3.0075L18.6883 3.75L18.3575 7.23825L20.6535 9.86525L18.3575 12.4922L18.6883 15.9805L15.2998 16.723L13.5153 19.7305L10.3268 18.3768L7.13825 19.7305ZM7.77675 17.8153L10.3268 16.7345L12.9075 17.8153L14.3268 15.4152L17.0768 14.7845L16.8268 11.9653L18.6768 9.86525L16.8268 7.7345L17.0768 4.91525L14.3268 4.31525L12.8768 1.91525L10.3268 2.996L7.746 1.91525L6.32675 4.31525L3.57675 4.91525L3.82675 7.7345L1.97675 9.86525L3.82675 11.9653L3.57675 14.8152L6.32675 15.4152L7.77675 17.8153ZM9.27675 13.069L14.5805 7.76525L13.5268 6.68075L9.27675 10.9307L7.12675 8.8115L6.073 9.86525L9.27675 13.069Z" fill="var(--fill-0, black)"/>
</svg>
