<svg preserveAspectRatio="none" width="100%" height="100%" overflow="visible" style="display: block;" viewBox="0 0 20.923 18.6845" fill="none" xmlns="http://www.w3.org/2000/svg">
<path id="Vector" d="M14.2345 9.78825L13.1115 8.66525C13.2615 7.83708 13.0253 7.0925 12.4028 6.4315C11.7804 5.77067 11.0167 5.51525 10.1115 5.66525L8.9885 4.54225C9.21417 4.44092 9.44558 4.36492 9.68275 4.31425C9.91992 4.26358 10.1795 4.23825 10.4615 4.23825C11.5962 4.23825 12.5593 4.63408 13.351 5.42575C14.1427 6.21742 14.5385 7.18058 14.5385 8.31525C14.5385 8.59725 14.5132 8.86008 14.4625 9.10375C14.4118 9.34725 14.3358 9.57542 14.2345 9.78825ZM17.4153 12.8997L16.3115 11.8652C16.9448 11.3819 17.5073 10.8528 17.999 10.2778C18.4907 9.70275 18.9115 9.04858 19.2615 8.31525C18.4282 6.63192 17.2323 5.29442 15.674 4.30275C14.1157 3.31108 12.3782 2.81525 10.4615 2.81525C9.97817 2.81525 9.50317 2.84858 9.0365 2.91525C8.56983 2.98192 8.1115 3.08192 7.6615 3.21525L6.49625 2.05C7.12825 1.79867 7.77375 1.61342 8.43275 1.49425C9.09175 1.37492 9.768 1.31525 10.4615 1.31525C12.805 1.31525 14.9184 1.96142 16.8018 3.25375C18.6851 4.54608 20.0588 6.23325 20.923 8.31525C20.5525 9.20875 20.074 10.0427 19.4875 10.8172C18.9008 11.5916 18.2101 12.2857 17.4153 12.8997ZM18.223 18.6845L14.177 14.669C13.6642 14.8588 13.0958 15.014 12.472 15.1345C11.8483 15.255 11.1782 15.3152 10.4615 15.3152C8.1115 15.3152 5.99808 14.6691 4.12125 13.3767C2.24425 12.0844 0.8705 10.3972 0 8.31525C0.369167 7.43192 0.846083 6.60792 1.43075 5.84325C2.01542 5.07842 2.659 4.41525 3.3615 3.85375L0.59225 1.05375L1.64625 0L19.2768 17.6305L18.223 18.6845ZM4.4155 4.9075C3.88717 5.328 3.37333 5.8335 2.874 6.424C2.37467 7.01433 1.9705 7.64475 1.6615 8.31525C2.49483 9.99858 3.69067 11.3361 5.249 12.3278C6.80733 13.3194 8.54483 13.8152 10.4615 13.8152C10.9167 13.8152 11.3699 13.7767 11.8213 13.6997C12.2724 13.6229 12.6551 13.5435 12.9693 13.4615L11.7038 12.1652C11.5333 12.2344 11.3358 12.2895 11.1115 12.3305C10.8872 12.3717 10.6705 12.3922 10.4615 12.3922C9.32683 12.3922 8.36367 11.9964 7.572 11.2047C6.78033 10.4131 6.3845 9.44992 6.3845 8.31525C6.3845 8.11275 6.40508 7.90092 6.44625 7.67975C6.48725 7.45858 6.54233 7.25633 6.6115 7.073L4.4155 4.9075Z" fill="var(--fill-0, black)"/>
</svg>
